# xmcd
#
# Track frame offsets:
# 150
# 29796
# 58232
# 92267
# 116888
# 146090
# 169144
# 186491
# 208300
# 240507
# 289750
#
# Disc length: 4569 seconds
#
#
# Revision: 0
# Processed by: cddbd v1.5.2PL0 Copyright (c) Steve Scherf et al.
# Submitted via: FreeRIP 2.96 
#
DISCID=af11d70b
DTITLE=Enquist, Per Olov - Das Buch von Blanche und Marie CD3v6
DYEAR=2005
DGENRE=Hörbuch
TTITLE0=22 Das Buch von Blanche und Marie
TTITLE1=23 Das Buch von Blanche und Marie
TTITLE2=24 Das Buch von Blanche und Marie
TTITLE3=25 Das Buch von Blanche und Marie
TTITLE4=26 Das Buch von Blanche und Marie
TTITLE5=27 Das Buch von Blanche und Marie
TTITLE6=28 Das Buch von Blanche und Marie
TTITLE7=29 Das Buch von Blanche und Marie
TTITLE8=30 Das Buch von Blanche und Marie
TTITLE9=31 Das Buch von Blanche und Marie
TTITLE10=32 Das Buch von Blanche und Marie
EXTD=gelesen von Frank Arnold
EXTT0=
EXTT1=
EXTT2=
EXTT3=
EXTT4=
EXTT5=
EXTT6=
EXTT7=
EXTT8=
EXTT9=
EXTT10=
PLAYORDER=
